/* XPM */
static char * frama_c_xpm[] = {
"32 32 96 2",
"  	c None",
". 	c #DB4620",
"+ 	c #E04821",
"@ 	c #E14921",
"# 	c #E14821",
"$ 	c #DF4720",
"% 	c #D1431E",
"& 	c #D6451E",
"* 	c #EB4B22",
"= 	c #F14D23",
"- 	c #F24D23",
"; 	c #F04D23",
"> 	c #EF4C22",
", 	c #DE4720",
"' 	c #EE4C22",
") 	c #EF4C21",
"! 	c #EF481D",
"~ 	c #EF461A",
"{ 	c #EF4519",
"] 	c #F1603B",
"^ 	c #F7A48F",
"/ 	c #FAD0C5",
"( 	c #FCDCD5",
"_ 	c #FDDED6",
": 	c #FBCBBE",
"< 	c #F05027",
"[ 	c #EF4B21",
"} 	c #EF4D23",
"| 	c #F37352",
"1 	c #FEF1EE",
"2 	c #FFFFFF",
"3 	c #FEFCFB",
"4 	c #FEF7F6",
"5 	c #FCE1D9",
"6 	c #F0532B",
"7 	c #FACBC0",
"8 	c #FCE2DB",
"9 	c #F6A08A",
"0 	c #F58A6F",
"a 	c #F58A6E",
"b 	c #F48264",
"c 	c #F04E24",
"d 	c #F04C22",
"e 	c #F05932",
"f 	c #F59076",
"g 	c #EF4418",
"h 	c #EF461B",
"i 	c #EF471C",
"j 	c #EF4A20",
"k 	c #F1603A",
"l 	c #FEF5F3",
"m 	c #F48062",
"n 	c #EF471B",
"o 	c #F0552D",
"p 	c #F15A33",
"q 	c #F27150",
"r 	c #F58B6F",
"s 	c #F1572F",
"t 	c #F05127",
"u 	c #EF4317",
"v 	c #F9B8A8",
"w 	c #FEFAF8",
"x 	c #FEFBFA",
"y 	c #FEFEFE",
"z 	c #FEFAF9",
"A 	c #FEF8F6",
"B 	c #F47E5F",
"C 	c #EF481C",
"D 	c #F9B3A2",
"E 	c #FDF1EE",
"F 	c #FEF4F1",
"G 	c #FEF6F4",
"H 	c #FDF2EF",
"I 	c #FEF2EF",
"J 	c #FDF0EC",
"K 	c #F47B5C",
"L 	c #F0471C",
"M 	c #EF4518",
"N 	c #F15E38",
"O 	c #EF4114",
"P 	c #F16540",
"Q 	c #FEF4F2",
"R 	c #F48063",
"S 	c #EF491E",
"T 	c #F26541",
"U 	c #F48163",
"V 	c #F1613C",
"W 	c #FEEEEA",
"X 	c #FCDAD1",
"Y 	c #F37959",
"Z 	c #EF4A1F",
"` 	c #EF4B20",
" .	c #EE3F12",
"..	c #EE4114",
"+.	c #E84A21",
"@.	c #EC4C22",
"      . + @ @ @ @ @ @ @ @ @ @ @ @ @ @ @ @ @ @ @ @ @ @ # $ %     ",
"  & * = = = = = = = = = = = = = = = = = = = = = = = = = = - $   ",
"  * ; > ; ; ; ; ; ; ; ; ; ; ; ; ; ; ; ; ; ; ; ; ; ; ; ; ; > - , ",
". = > ; ; ; ; ; ; ; ; ; ; ; ; ; ; ; ; ; ; ; ; ; ; ; ; ; ; ; ; ' ",
"+ = ; ; ; ; ; ; ; ; ; ; ; ; ; ; ; ; ; ; ; ; ; ; ; ; ; ; ; ; > ; ",
"@ = ; ; ; ; ; ; ; ; ; ; ; ; ; ) ! ~ { { ~ > ; ; ; ; ; ; ; ; ; ; ",
"@ = ; ; ; ; ; ; ; ; ; ; ; > ) ] ^ / ( _ : < [ ; ; ; ; ; ; ; ; ; ",
"@ = ; ; ; ; ; ; ; ; ; ; ; } | 1 2 3 4 4 5 < [ ; ; ; ; ; ; ; ; ; ",
"@ = ; ; ; ; ; ; ; ; ; ; ; 6 7 2 8 9 0 a b c > ; ; ; ; ; ; ; ; ; ",
"@ = ; ; ; ; ; ; ; ; ; ; d e 2 2 f g h h i > ; ; ; ; ; ; ; ; ; ; ",
"@ = ; ; ; ; ; ; ; ; ; [ j k 2 l m n j j > ; ; ; ; ; ; ; ; ; ; ; ",
"@ = ; ; ; ; ; ; ; ; > o p q 2 l r s p p t > ; ; ; ; ; ; ; ; ; ; ",
"@ = ; ; ; ; ; ; ; ; u v w x 2 y 3 z x A B C ; ; ; ; ; ; ; ; ; ; ",
"@ = ; ; ; ; ; ; ; ; u D E F 2 y G H I J K ! ; ; ; ; ; ; ; ; ; ; ",
"@ = ; ; ; ; ; ; ; ; ; L M N 2 F K O { { j ; ; ; ; ; ; ; ; ; ; ; ",
"@ = ; ; ; ; ; ; ; ; ; > > P 2 Q R S > > d ; ; ; ; ; ; ; ; ; ; ; ",
"@ = ; ; ; ; ; ; ; ; ; ; > T 2 Q U S ; ; ; ; ; ; ; ; ; ; ; ; ; ; ",
"@ = ; ; ; ; ; ; ; ; ; ; > T 2 Q U S ; ; ; ; ; ; ; ; ; ; ; ; ; ; ",
"@ = ; ; ; ; ; ; ; ; ; ; > T 2 Q U S ; ; ; ; ; ; ; ; ; ; ; ; ; ; ",
"@ = ; ; ; ; ; ; ; ; ; ; > T 2 Q U S ; ; ; ; ; ; ; ; ; ; ; ; ; ; ",
"@ = ; ; ; ; ; ; ; ; ; ; > T 2 Q U S ; ; ; ; ; ; ; ; ; ; ; ; ; ; ",
"@ = ; ; ; ; ; ; ; ; ; ; > T 2 Q U S ; ; ; ; ; ; ; ; ; ; ; ; ; ; ",
"@ = ; ; ; ; ; ; ; ; ; ; > T 2 Q U S ; ; ; ; ; ; ; ; ; ; ; ; ; ; ",
"@ = ; ; ; ; ; ; ; ; ; ; > T 2 Q U S ; ; ; ; ; ; ; ; ; ; ; ; ; ; ",
"@ = ; ; ; ; ; ; ; ; ; ; > T 2 Q U S ; ; ; ; ; ; ; ; ; ; ; ; ; ; ",
"@ = ; ; ; ; ; ; ; ; ; ; > T 2 Q U S ; ; ; ; ; ; ; ; ; ; ; ; ; ; ",
"@ = ; ; ; ; ; ; ; ; ; ; > V W X Y Z ; ; ; ; ; ; ; ; ; ; ; ; ; ; ",
"# = ; ; ; ; ; ; ; ; ; ; ; `  ...S ; ; ; ; ; ; ; ; ; ; ; ; ; ; ; ",
"$ = ; ; ; ; ; ; ; ; ; ; ; ; ; ; ; ; ; ; ; ; ; ; ; ; ; ; ; ; > ; ",
"% - > ; ; ; ; ; ; ; ; ; ; ; ; ; ; ; ; ; ; ; ; ; ; ; ; ; ; > ; +.",
"  $ - ; > ; ; ; ; ; ; ; ; ; ; ; ; ; ; ; ; ; ; ; ; ; ; ; > ; @.  ",
"    , ' ; ; ; ; ; ; ; ; ; ; ; ; ; ; ; ; ; ; ; ; ; ; ; ; ; +.    "};
